<svg xmlns="http://www.w3.org/2000/svg" xmlns:xlink="http://www.w3.org/1999/xlink" xml:space="preserve" width="3069px" height="626px" fill-rule="evenodd" clip-rule="evenodd" viewBox="0 0 3069 626">
 <g id="Layer_x0020_1">
  <metadata id="CorelCorpID_0Corel-Layer"></metadata>
  <g id="_2777209912880">
   <path fill="#12446F" d="M407 89c45,-37 105,-62 164,-75 79,-19 155,-18 187,-1 5,2 8,7 8,12l0 0 0 11c17,3 31,7 41,12 4,2 7,7 7,12l0 0 0 552c0,7 -6,13 -13,13 -3,0 -5,0 -7,-2 -42,-19 -113,-38 -193,-39 -59,0 -124,11 -184,39 -1,1 -2,1 -3,1l-1 1c-2,1 -4,1 -6,1 -2,0 -4,0 -6,-1l-1 -1c-1,0 -2,0 -3,-1 -60,-28 -124,-39 -184,-39 -80,1 -151,20 -193,39 -2,2 -4,2 -6,2 -8,0 -14,-6 -14,-13l0 -552 0 0c0,-5 3,-10 7,-12 10,-5 24,-9 41,-12l0 -11 0 0c0,-5 3,-10 8,-12 32,-17 109,-18 187,1 59,13 119,38 164,75zm359 -26l0 472c0,8 -6,14 -14,14 -1,0 -1,0 -2,0 -40,-4 -87,-2 -138,9 69,1 132,16 175,33l0 -522c-6,-2 -13,-4 -21,-6zm-564 495c-51,-11 -98,-13 -138,-9 -1,0 -1,0 -2,0 -8,0 -14,-6 -14,-14l0 -472c-8,2 -15,4 -21,6l0 522c43,-17 106,-32 175,-33zm205 46c-139,-64 -244,-87 -333,-78l0 -490c53,-28 233,-3 333,85 100,-88 280,-113 333,-85l0 490c-89,-9 -194,14 -333,78z"></path>
   <path fill="#0487B3" fill-rule="nonzero" d="M383 320c-13,-6 -26,-12 -41,-14 -14,-2 -27,0 -40,2 -11,2 -22,3 -31,2 -10,-2 -20,-7 -31,-12 -13,-6 -26,-12 -41,-14 -12,-2 -25,-2 -37,-2 -11,0 -22,0 -33,-1 -9,-2 -16,4 -16,13 0,9 7,17 16,18 12,2 25,2 38,2 11,0 22,0 32,1 10,2 21,7 32,12 13,6 26,12 40,14 14,2 27,0 40,-2 11,-2 22,-3 31,-2 10,2 21,7 31,12 41,14 43,13 77,0 11,-5 21,-10 31,-12 10,-1 20,0 31,2 13,2 27,4 41,2 14,-2 27,-8 40,-14 11,-5 21,-10 31,-12 11,-1 22,-1 33,-1 12,0 25,0 38,-2 8,-1 15,-9 15,-18 0,-9 -7,-15 -15,-13 -11,1 -22,1 -33,1 -13,0 -25,0 -38,2 -14,2 -27,8 -40,14 -11,5 -22,10 -31,12 -10,1 -21,0 -32,-2 -13,-2 -26,-4 -40,-2 -14,2 -27,8 -40,14 -23,14 -39,13 -58,0z"></path>
   <path fill="#12446F" fill-rule="nonzero" d="M524 248l127 -19c8,-2 15,4 15,13 0,9 -7,17 -15,18l-112 17c-4,-11 -9,-20 -15,-29z"></path>
   <path fill="#12446F" fill-rule="nonzero" d="M429 204l174 -27c9,-1 16,5 16,13 0,9 -7,17 -16,18l-104 16c-19,-13 -43,-21 -70,-20z"></path>
   <path fill="#12446F" fill-rule="nonzero" d="M539 363l112 -17c8,-1 15,5 15,14 0,8 -7,16 -15,18l-127 19c6,-11 11,-22 15,-34z"></path>
   <path fill="#12446F" fill-rule="nonzero" d="M499 428l104 -16c9,-1 16,5 16,14 0,8 -7,16 -16,18l-174 26c27,-7 51,-22 70,-42z"></path>
   <path fill="#12446F" fill-rule="nonzero" d="M412 147l-89 -13c-9,-1 -16,5 -16,13 0,9 7,17 16,18l89 14 88 -14c9,-1 16,-9 16,-18 0,-8 -7,-14 -16,-13l-88 13z"></path>
   <path fill="#12446F" fill-rule="nonzero" d="M300 248l-127 -19c-9,-2 -16,4 -16,13 0,9 7,17 16,18l111 17c4,-11 9,-20 16,-29z"></path>
   <path fill="#12446F" fill-rule="nonzero" d="M394 204l-173 -27c-9,-1 -16,5 -16,13 0,9 7,17 16,18l103 16c19,-13 44,-21 70,-20z"></path>
   <path fill="#12446F" fill-rule="nonzero" d="M412 500l-89 -13c-9,-1 -16,4 -16,13 0,9 7,17 16,18l89 14 88 -14c9,-1 16,-9 16,-18 0,-9 -7,-14 -16,-13l-88 13z"></path>
   <path fill="#12446F" fill-rule="nonzero" d="M284 363l-111 -17c-9,-1 -16,5 -16,14 0,8 7,16 16,18l127 19c-7,-11 -12,-22 -16,-34z"></path>
   <path fill="#12446F" fill-rule="nonzero" d="M324 428l-103 -16c-9,-1 -16,5 -16,14 0,8 7,16 16,18l173 26c-26,-7 -51,-22 -70,-42z"></path>
   <polygon fill="#12446F" points="416,612 398,613 406,401 "></polygon>
   <polygon fill="#12446F" points="416,105 398,104 406,299 "></polygon>
   <polygon fill="#12446F" fill-rule="nonzero" points="1145,338 1145,334 1143,332 1141,331 1128,330 1123,329 1118,329 1093,331 1088,331 1063,329 1044,331 1038,331 1019,330 1015,330 1014,328 1013,326 1012,322 1012,315 1013,309 1014,300 1014,295 1015,293 1017,292 1021,291 1027,291 1041,292 1047,292 1069,293 1097,291 1103,291 1118,293 1125,293 1129,292 1131,290 1133,288 1133,284 1134,273 1133,265 1133,254 1133,248 1132,242 1132,238 1131,236 1129,234 1125,234 1114,233 1075,235 1042,235 1031,236 1019,235 1016,234 1014,232 1013,230 1013,226 1013,220 1013,214 1013,206 1014,202 1015,200 1016,198 1020,198 1023,197 1028,197 1044,198 1062,199 1067,199 1085,198 1091,198 1124,199 1129,199 1132,199 1136,198 1138,196 1139,194 1140,190 1140,185 1140,179 1140,171 1140,165 1140,156 1140,147 1140,142 1139,140 1137,138 1132,137 1123,137 1111,138 1105,138 1058,137 1052,137 1031,139 1026,139 1005,137 999,137 978,138 955,136 951,137 948,137 946,139 945,142 945,147 944,165 944,170 943,180 943,189 943,194 944,213 945,219 943,237 943,267 943,286 943,291 944,310 944,315 944,334 944,339 943,358 943,363 942,368 943,374 943,382 944,386 945,388 947,390 952,391 964,391 994,390 999,390 1017,391 1041,391 1047,391 1065,389 1071,389 1089,390 1095,390 1141,389 1142,388 1144,385 1144,382 1146,363 1146,357 "></polygon>
   <polygon fill="#12446F" fill-rule="nonzero" points="1367,306 1366,301 1365,293 1364,288 1361,282 1358,278 1354,272 1351,267 1347,263 1337,255 1332,252 1327,249 1322,247 1315,244 1306,240 1300,239 1292,237 1281,234 1269,231 1263,230 1251,229 1243,228 1237,227 1235,226 1231,224 1227,220 1224,216 1223,211 1224,206 1226,201 1228,199 1232,195 1234,194 1240,193 1246,192 1252,191 1261,191 1270,192 1276,192 1284,194 1290,195 1292,196 1298,198 1300,199 1305,201 1311,204 1314,206 1316,206 1319,205 1323,202 1327,197 1341,179 1343,175 1347,168 1349,164 1349,161 1346,158 1342,155 1337,152 1330,148 1325,146 1320,144 1314,142 1308,140 1302,138 1297,137 1285,135 1279,134 1277,133 1271,133 1261,132 1255,132 1250,132 1244,133 1237,134 1226,135 1221,136 1213,138 1207,140 1197,144 1190,148 1185,150 1181,153 1176,157 1171,162 1167,166 1164,170 1162,175 1158,183 1157,188 1155,192 1154,198 1154,206 1153,212 1154,223 1155,230 1156,236 1158,243 1161,248 1164,253 1167,258 1173,263 1177,266 1183,269 1187,272 1199,278 1204,281 1210,282 1217,285 1223,287 1233,289 1266,292 1272,293 1278,294 1284,296 1286,297 1291,301 1293,303 1295,308 1296,311 1297,317 1294,322 1293,324 1289,328 1285,331 1279,333 1277,333 1271,334 1249,336 1243,335 1235,335 1230,334 1224,332 1219,330 1211,326 1206,324 1201,321 1190,314 1186,311 1182,310 1178,312 1175,316 1171,320 1165,329 1162,333 1153,342 1149,346 1148,347 1146,351 1146,353 1149,356 1153,360 1157,364 1163,368 1168,372 1179,380 1183,382 1188,385 1193,387 1198,390 1206,392 1211,394 1217,395 1222,396 1230,396 1235,397 1243,397 1260,396 1268,395 1273,395 1280,394 1286,394 1294,392 1300,391 1311,388 1319,385 1323,382 1329,380 1333,376 1340,372 1344,368 1349,364 1352,360 1356,353 1359,349 1362,342 1364,337 1365,329 1366,324 1367,318 1367,312 "></polygon>
   <polygon fill="#12446F" fill-rule="nonzero" points="1597,356 1596,353 1594,351 1591,347 1581,336 1578,332 1572,325 1569,321 1567,319 1563,316 1560,313 1556,313 1554,313 1551,316 1546,319 1540,323 1535,326 1530,328 1524,331 1516,334 1510,336 1508,336 1503,337 1495,337 1486,337 1481,336 1473,334 1468,332 1461,328 1456,325 1450,320 1446,315 1440,308 1438,302 1435,296 1433,291 1432,283 1431,278 1431,269 1431,264 1432,253 1432,248 1433,242 1435,236 1437,231 1440,226 1442,222 1445,217 1450,212 1452,210 1457,207 1464,203 1468,201 1474,199 1481,197 1487,195 1495,195 1500,195 1509,195 1514,196 1522,199 1527,200 1534,204 1539,206 1546,211 1549,213 1552,214 1554,214 1557,213 1560,210 1562,208 1566,204 1572,197 1575,193 1579,190 1583,186 1587,183 1590,179 1592,176 1592,173 1592,170 1589,168 1587,166 1583,163 1573,156 1563,149 1559,147 1551,142 1546,140 1534,136 1526,135 1521,134 1508,132 1500,132 1495,132 1487,132 1476,133 1471,134 1465,135 1453,137 1447,139 1441,141 1431,146 1426,149 1421,152 1410,159 1406,163 1401,167 1397,171 1393,175 1389,180 1386,185 1382,190 1379,195 1377,200 1374,205 1372,210 1369,217 1367,222 1366,227 1364,232 1363,240 1362,245 1361,251 1361,263 1361,269 1360,274 1360,280 1360,288 1361,293 1365,303 1367,310 1372,325 1376,332 1378,337 1381,342 1384,347 1388,352 1392,357 1396,361 1405,369 1410,372 1415,375 1419,378 1425,382 1430,384 1438,387 1453,391 1459,393 1465,394 1471,395 1476,396 1482,396 1501,396 1509,396 1516,395 1528,394 1537,392 1543,391 1548,389 1554,388 1562,384 1566,381 1573,378 1577,375 1584,370 1588,367 1595,361 1597,358 "></polygon>
   <path fill="#12446F" fill-rule="nonzero" d="M1853 249l-1 -6 -1 -6 -2 -10 -2 -8 -2 -5 -2 -5 -3 -5 -4 -7 -2 -4 -3 -5 -3 -4 -5 -7 -3 -4 -4 -4 -3 -4 -6 -5 -5 -4 -4 -3 -12 -6 -5 -3 -7 -2 -5 -2 -6 -2 -5 -1 -6 -1 -6 -1 -6 -1 -6 -1 -8 0 -11 -1 -11 1 -18 2 -5 1 -13 2 -5 2 -6 1 -4 2 -8 3 -5 3 -5 2 -4 3 -11 7 -4 3 -5 4 -6 5 -4 4 -2 3 -3 5 -5 7 -3 6 -1 3 -3 5 -2 8 -2 6 -2 5 -2 6 -1 6 -1 6 -1 6 0 6 0 6 0 6 0 6 0 5 1 8 1 5 1 6 1 5 3 7 5 16 3 7 2 5 4 4 3 4 10 10 4 4 4 5 4 4 5 3 5 3 5 3 12 5 6 3 5 1 19 7 5 1 5 1 12 1 12 1 18 0 6 0 6 -1 6 -2 6 -1 6 -2 11 -3 5 -2 7 -3 5 -2 5 -2 5 -3 6 -4 4 -4 5 -3 4 -4 5 -6 4 -3 3 -5 3 -4 10 -16 2 -5 4 -7 1 -6 1 -5 1 -5 1 -9 2 -10 0 -5 1 -8 0 -6 0 -12zm-74 26l0 6 -2 8 -2 5 -4 8 -3 5 -4 5 -4 4 -5 6 -5 3 -7 5 -5 2 -8 1 -5 1 -9 1 -6 0 -9 -2 -5 -1 -7 -2 -6 -2 -5 -3 -5 -3 -7 -6 -4 -4 -2 -3 -4 -5 -2 -2 -3 -5 -1 -3 -2 -5 -1 -2 -1 -6 0 -3 -1 -5 -1 -6 0 -5 1 -5 0 -5 1 -5 1 -5 1 -3 1 -5 4 -7 1 -2 2 -5 4 -5 4 -4 6 -5 5 -3 8 -4 5 -3 9 -2 6 -1 7 0 5 -1 12 1 5 1 6 2 5 2 9 5 4 3 5 6 3 4 5 6 3 5 4 7 1 5 2 11 1 5 0 6 0 6 -1 8z"></path>
   <polygon fill="#12446F" fill-rule="nonzero" points="2056,363 2055,357 2055,338 2055,334 2054,331 2051,329 2047,328 2042,328 2036,329 2024,330 2019,330 1968,331 1963,331 1952,332 1940,331 1936,330 1935,329 1934,327 1933,325 1933,322 1935,276 1935,270 1934,250 1934,244 1933,224 1933,219 1935,198 1935,193 1934,172 1934,142 1932,140 1930,138 1926,138 1901,138 1896,138 1879,137 1873,138 1871,138 1867,138 1864,140 1863,142 1862,146 1861,149 1861,155 1862,165 1862,195 1863,213 1863,219 1864,261 1864,267 1863,310 1863,315 1863,334 1863,339 1864,358 1864,363 1862,376 1862,382 1863,386 1864,388 1867,390 1871,390 1875,391 1881,391 1897,390 1923,390 1943,391 1974,389 2001,389 2039,391 2044,391 2047,391 2051,390 2053,389 2055,387 2056,382 2056,379 2056,374 "></polygon>
   <path fill="#12446F" fill-rule="nonzero" d="M2341 362l-10 -22 -2 -4 -8 -17 -11 -22 -2 -4 -7 -18 -2 -5 -8 -17 -2 -5 -8 -17 -2 -4 -6 -18 -2 -5 -8 -17 -2 -5 -9 -17 -2 -5 -5 -13 -2 -5 -3 -3 -6 -1 -16 0 -28 0 -16 0 -5 2 -4 2 -1 3 -7 15 -2 5 -6 16 -3 6 -7 15 -3 6 -10 21 -12 29 -2 5 -10 19 -2 5 -8 19 -2 5 -9 20 -2 5 -9 19 -2 6 -5 11 -2 5 -1 3 0 5 3 3 4 2 4 0 22 -1 6 0 20 1 6 0 5 -2 4 -5 2 -5 8 -24 2 -4 3 -2 4 -1 16 0 6 0 5 0 21 0 26 1 6 0 21 2 4 0 3 1 2 3 11 29 2 4 2 3 5 1 21 -1 16 0 5 0 8 1 5 0 5 -1 4 -1 2 -4 -1 -5 -7 -18zm-111 -77l-3 3 -4 1 -17 -1 -22 0 -5 -1 -3 -1 -1 -5 1 -5 9 -23 2 -5 9 -24 4 -4 4 -1 4 1 4 3 1 4 7 21 2 5 8 24 1 4 -1 4z"></path>
   <path fill="#12446F" fill-rule="nonzero" d="M1058 533l0 -3 -1 -3 -1 -2 0 -2 -2 -3 -1 -2 -2 -3 -1 -1 -2 -3 -2 -1 -2 -2 0 -2 0 -1 4 -4 2 -2 2 -3 1 -3 1 -4 1 -3 0 -3 0 -3 -1 -4 0 -3 -1 -3 -1 -2 -2 -4 -2 -2 -2 -3 -2 -2 -3 -2 -2 -2 -4 -2 -2 -1 -4 -1 -3 -1 -3 -1 -3 0 -10 -1 -3 0 -10 0 -3 0 -9 1 -16 -1 -9 0 -10 0 -3 0 -2 1 -2 1 -1 2 0 4 1 6 0 2 1 10 -1 3 0 9 0 3 0 9 0 3 0 9 0 3 0 10 0 7 -1 5 0 3 1 2 0 3 0 4 0 3 0 9 0 3 -1 2 0 3 0 2 0 3 1 2 1 1 1 0 3 1 2 0 7 0 13 0 2 0 10 0 16 0 9 0 3 0 5 0 2 -1 4 0 8 -2 3 -1 3 -1 3 -1 2 -1 2 -2 5 -3 2 -2 3 -3 1 -2 2 -4 1 -2 1 -4 1 -3 0 -4 0 -3 0 -2zm-80 -46l0 -3 0 -4 1 -3 1 -1 1 0 1 -1 2 0 2 0 9 0 3 0 4 0 3 1 1 0 3 0 1 0 3 1 1 0 3 2 1 2 1 3 0 3 -1 2 -1 2 -1 1 -2 2 -2 1 -2 0 -4 0 -6 0 -4 0 -3 -1 -6 1 -4 0 -2 0 -2 -1 -1 -1 0 -2 0 -3 0 -1zm44 49l0 3 -1 2 -1 1 -2 2 -1 1 -3 0 -6 0 -11 1 -14 0 -3 0 -1 -1 -1 -1 0 -2 0 -3 0 -4 0 -3 0 -3 0 -4 0 -2 1 0 2 -1 2 0 1 0 2 -1 11 0 3 0 8 0 2 0 2 0 2 1 3 2 2 2 1 1 2 3 0 2 1 3 -1 1z"></path>
   <path fill="#12446F" fill-rule="nonzero" d="M1244 571l-1 -2 -1 -2 -6 -6 -2 -2 -6 -9 -2 -2 -6 -9 -2 -2 -6 -9 -1 -1 2 -1 2 0 2 -2 2 -1 4 -2 2 -1 3 -3 1 -2 2 -2 1 -3 2 -2 1 -3 1 -3 1 -2 1 -3 0 -3 0 -3 0 -3 0 -4 0 -3 -1 -3 -1 -3 -1 -2 -1 -3 -3 -3 -1 -2 -3 -4 -1 -2 -2 -2 -2 -1 -3 -3 -3 -1 -2 -1 -3 -1 -3 -1 -3 -1 -3 -1 -3 -1 -3 0 -7 0 -11 -1 -3 0 -12 1 -21 -1 -8 0 -3 0 -1 0 -3 1 -1 1 0 2 0 1 -1 3 1 6 0 3 0 9 0 3 0 10 0 2 -1 10 0 3 1 9 0 3 -1 10 0 3 0 9 0 3 1 10 0 2 -1 10 0 3 0 4 0 3 0 3 0 1 2 1 2 0 8 1 3 0 8 -1 8 1 3 0 2 -1 1 -1 0 -2 1 -3 0 -2 -1 -5 0 -2 -1 -10 0 -3 1 -10 0 -2 2 -1 2 0 6 0 2 0 1 1 1 1 6 8 1 2 5 8 2 2 5 8 2 2 6 8 1 1 2 1 2 0 8 0 3 0 10 0 12 0 2 -1 1 -2zm-54 -66l-12 0 -3 0 -9 0 -2 -1 -1 0 -1 -1 0 -2 0 -10 0 -3 0 -3 -1 -3 0 -4 0 -2 2 -1 1 0 2 -1 9 0 3 0 9 0 2 0 4 1 3 1 2 2 1 2 2 3 0 2 1 3 0 3 0 3 -1 3 -1 3 -2 2 -2 1 -2 1 -4 1z"></path>
   <path fill="#12446F" fill-rule="nonzero" d="M1439 560l-5 -11 -1 -3 -4 -8 -6 -11 -1 -3 -3 -9 -1 -2 -4 -9 -1 -2 -4 -9 -1 -2 -3 -9 -1 -3 -4 -8 -1 -3 -5 -8 -1 -3 -2 -7 -1 -2 -2 -2 -3 0 -8 0 -14 0 -8 0 -3 1 -2 1 -1 2 -3 7 -1 3 -3 8 -2 3 -3 7 -2 3 -5 11 -6 14 -1 3 -5 10 -1 3 -4 9 -1 3 -5 10 -1 2 -4 10 -1 3 -3 5 -1 3 0 2 0 2 1 2 2 1 2 0 11 -1 3 0 11 1 2 0 3 -1 2 -3 1 -3 4 -12 1 -2 2 -1 2 0 8 0 3 0 2 0 11 0 13 0 3 0 11 1 2 0 2 1 1 1 5 15 1 2 1 2 3 0 11 0 8 0 2 0 4 0 3 0 2 0 2 -1 1 -2 0 -2 -4 -9zm-56 -40l-1 2 -3 0 -8 0 -11 0 -3 0 -2 -1 0 -2 0 -3 5 -12 1 -3 5 -12 2 -1 2 -1 2 1 2 1 0 2 4 11 1 2 4 12 1 3 -1 1z"></path>
   <polygon fill="#12446F" fill-rule="nonzero" points="1608,531 1607,528 1607,524 1606,522 1605,519 1603,517 1601,514 1599,511 1597,509 1592,505 1590,504 1588,502 1585,501 1581,499 1577,498 1574,497 1570,496 1564,494 1558,493 1555,492 1549,492 1545,491 1542,491 1541,490 1539,489 1537,488 1535,485 1535,483 1535,480 1536,478 1537,477 1539,475 1540,474 1543,474 1546,473 1549,473 1554,473 1558,473 1561,473 1565,474 1568,475 1570,475 1572,476 1574,477 1576,478 1579,479 1581,480 1582,480 1583,480 1586,478 1588,476 1594,467 1596,465 1598,461 1599,459 1599,457 1597,456 1595,454 1592,453 1589,451 1586,450 1584,449 1581,448 1578,447 1575,446 1572,445 1566,444 1563,444 1562,443 1559,443 1554,442 1551,442 1548,443 1545,443 1542,444 1536,444 1533,445 1529,446 1527,447 1521,449 1518,451 1516,452 1513,453 1511,455 1508,458 1506,460 1505,462 1504,464 1502,468 1501,471 1500,473 1500,476 1499,480 1499,483 1500,489 1500,493 1501,495 1502,499 1503,502 1505,504 1506,507 1509,509 1511,511 1514,512 1516,514 1522,517 1525,518 1528,519 1532,521 1535,521 1540,522 1557,524 1560,524 1563,525 1565,526 1567,527 1569,528 1570,530 1571,532 1572,533 1572,536 1571,539 1570,540 1568,542 1566,544 1563,545 1562,545 1559,545 1548,546 1545,546 1541,546 1538,545 1535,544 1533,543 1528,541 1526,540 1523,539 1518,535 1516,533 1514,533 1512,534 1510,536 1508,538 1505,543 1504,545 1499,549 1497,551 1496,552 1495,554 1496,555 1497,557 1499,558 1501,560 1504,563 1506,564 1512,568 1514,570 1517,571 1520,572 1522,574 1526,575 1529,576 1532,576 1534,577 1538,577 1541,577 1545,577 1553,577 1557,576 1560,576 1564,576 1566,575 1571,575 1574,574 1579,572 1583,571 1586,570 1588,568 1591,567 1594,564 1596,563 1598,560 1600,558 1602,555 1603,553 1605,549 1606,547 1607,543 1607,540 1608,537 1608,534 "></polygon>
   <polygon fill="#12446F" fill-rule="nonzero" points="1709,536 1709,521 1709,511 1709,508 1709,499 1709,496 1709,486 1709,483 1709,474 1709,456 1709,454 1709,449 1709,447 1708,446 1706,446 1695,446 1687,446 1684,446 1680,446 1677,446 1676,446 1674,446 1673,447 1673,449 1673,459 1673,474 1673,483 1673,486 1673,496 1673,511 1673,521 1673,524 1674,533 1673,536 1673,546 1673,549 1673,558 1673,561 1673,564 1673,566 1674,571 1674,573 1674,573 1675,574 1684,574 1695,574 1704,574 1707,574 1708,574 1709,573 1709,571 1709,561 1709,558 1710,549 1710,546 "></polygon>
   <polygon fill="#12446F" fill-rule="nonzero" points="1880,560 1880,557 1880,547 1880,545 1879,544 1878,543 1876,542 1873,542 1870,542 1864,543 1861,543 1836,544 1833,544 1828,544 1822,544 1819,543 1819,543 1818,542 1818,541 1818,539 1819,516 1819,513 1818,503 1818,500 1818,489 1818,487 1819,476 1819,474 1818,463 1818,448 1817,447 1816,446 1814,446 1802,446 1799,446 1790,445 1788,446 1786,446 1784,446 1783,447 1782,448 1782,450 1781,452 1781,454 1782,460 1782,475 1782,484 1782,487 1783,508 1783,511 1782,533 1782,536 1782,545 1782,548 1783,557 1783,560 1782,567 1782,570 1782,572 1783,573 1784,574 1786,574 1789,574 1791,574 1799,574 1813,574 1823,574 1839,573 1852,573 1872,574 1874,574 1876,574 1877,574 1879,573 1880,572 1880,570 1880,568 1880,565 "></polygon>
   <g>
    <path fill="#0487B3" fill-rule="nonzero" d="M2381 440c0,-2 1,-3 1,-3 1,0 1,2 2,3 0,0 -1,1 -2,1 0,0 -1,-1 -1,-1zm-10 -1l-1 0c0,0 -1,0 -2,1 2,-2 2,-4 2,-4 -1,0 -2,1 -2,2l1 -1c1,0 2,-1 2,-1 0,0 0,1 0,2l0 1zm-4 -11c0,0 0,1 1,1 0,0 1,0 1,1 0,0 -1,1 -1,1 0,0 -1,-1 -1,-1l0 -2zm10 -4l1 0 0 2c0,0 -1,-1 -1,-2l0 0zm6 -6c-5,-8 -5,-4 -5,-9l5 5 2 2c0,1 -1,1 -2,2zm-12 0c1,-1 -1,-1 4,-1l4 0 0 1c-1,1 -2,2 -4,2 -1,0 -3,-1 -4,-2zm-3 -3l0 2c1,0 1,1 1,1l-1 1c0,0 0,-1 0,-2l0 -2zm19 -1c0,-1 0,-1 0,-1 1,0 1,1 1,1 1,1 1,2 1,2 -1,0 -2,-1 -2,-2zm-17 2c-1,-1 -1,-2 -1,-2l1 0c1,0 1,0 1,0l3 0c0,1 -2,2 -3,2l-1 0zm17 -7c0,-1 1,-1 1,-1 1,0 2,0 2,1 0,1 -1,2 -1,2 -1,0 -2,0 -2,-2zm-16 -1c0,0 0,1 1,1l2 0c0,-1 0,-1 -1,-1l-1 1c1,1 1,2 1,2l0 0c-1,0 -2,-1 -2,-2l0 -1zm-4 1c0,2 0,1 -1,2 -1,0 -1,0 -1,-1l0 -2c1,0 1,1 2,1zm173 -1l0 0c0,-1 1,-1 1,-2l-1 2zm-154 -3c0,0 1,0 1,0l0 2 -1 -2zm-18 -3c0,0 1,2 1,3l1 0c1,0 1,0 1,0 0,1 -1,2 -1,2 -1,0 -2,-1 -2,-2l0 -3zm8 -3c4,3 2,2 3,3 -1,0 -2,1 -4,1 0,0 -2,-1 -2,-2l0 -2 2 -1 1 1zm12 0l1 0c1,0 1,0 1,0l0 2c-1,0 -2,-1 -2,-2zm8 -3l1 2 0 1 -1 -2 0 -1zm151 6l0 -5c2,-5 0,-2 3,-4l0 6c-2,4 0,1 -3,3zm-157 -10c0,-1 2,-2 3,-2l0 4 -2 0 -1 -2zm6 -3l1 1c0,0 0,0 0,1l0 1c-1,0 -2,0 -2,-2l1 -1zm-7 0c-1,4 0,1 -2,4 0,-1 0,-2 0,-2 0,-2 1,-1 2,-2zm-7 2l-3 -1 0 -1 -1 -1c2,0 3,1 3,1 0,0 0,-1 0,-1 1,0 1,0 1,1l0 2zm149 0l0 -3c0,-1 0,-1 0,-2 1,2 1,0 1,3l-1 2zm-149 -2c0,-1 1,-1 1,-1l2 -1c0,1 -1,2 -2,2l-1 0zm155 -3c0,-1 1,-1 1,-1 0,0 0,0 0,1l0 1c0,0 -1,-1 -1,-1zm4 -2l2 1 1 0c0,0 0,1 -1,1 0,0 -1,0 -2,-1l0 -1zm9 -1l0 -1 -1 -1c1,1 2,1 3,1l0 1 -2 0zm-166 -3c1,1 1,0 1,1l-1 2c-1,-1 -1,-2 -1,-3 0,0 1,0 1,0zm22 0l1 1 2 0c0,0 -1,1 -2,1 0,0 -1,0 -1,-1l0 -1zm-28 3c-2,0 -2,0 -3,-3l3 3zm165 -9l0 3c-1,0 -2,-1 -3,-2l3 -1zm-139 3c-1,-1 -1,-2 -1,-2 1,0 3,1 3,1l1 0c0,0 -1,1 -2,1l-1 0zm-7 1c-5,-1 -3,0 -5,-3 2,1 4,2 5,3zm142 -5l-1 1c0,0 0,0 0,-1l1 -2 0 2zm-155 -2c0,1 -1,1 -2,1l0 -2c2,1 2,0 2,1zm163 -4l0 3 -4 0c0,-3 1,-3 4,-3zm-14 2l2 2c-1,0 -2,0 -2,-1l0 -1zm17 0c0,-1 0,-1 0,-1l-1 0c0,0 1,-1 1,-2l0 3zm-9 -2c0,-1 1,-1 1,-1l-1 1zm-129 2c-1,-2 -1,-2 -1,-3l0 -2 1 3 0 2zm-29 -5c1,0 1,0 1,1 0,1 0,2 -1,2 0,0 -1,-1 -1,-2l1 -1zm11 -3c0,0 0,1 -1,3 -1,-2 -2,-3 -2,-3 0,-1 1,-1 2,-1l1 1zm140 -1c0,-1 1,-2 1,-2l0 2c0,1 0,1 -1,1l0 -1zm-122 1c0,0 0,0 -1,0l0 -2c0,-1 1,-1 2,-1l-1 3zm-8 0c-1,1 -1,1 -1,1 -2,0 -3,-1 -6,-2 0,-1 2,-2 4,-2 1,0 2,0 3,3zm153 -3l0 2 -1 -1 1 -1zm-13 -2c0,0 0,1 0,2 1,0 1,1 1,1 -1,0 -2,-1 -2,-1l1 -2zm-130 3l0 -1 3 0c0,0 -1,1 -2,1l-1 0zm118 -1l0 -2c1,0 2,1 2,1l1 0c0,0 -1,1 -1,1l-2 0zm-5 -2l1 1 0 1c0,0 -1,0 -1,-1l0 -1zm-137 -1c3,1 2,0 3,3 -1,-1 -3,-1 -3,-1l-1 0c0,-1 1,-1 1,-2zm161 3c-5,-2 -3,-1 -4,-4 4,1 3,0 4,4zm-155 -4l1 -1c0,0 0,0 0,1 0,0 0,1 0,1l-1 -1zm144 0l-1 -1 1 -1 1 1 2 0c0,0 -1,1 -2,1l-1 0zm-127 -3l1 2 -1 0 -2 1 2 -3zm-10 1c0,0 -1,1 -1,2l-2 -2c0,0 1,0 2,-2l1 1 0 1zm146 -3c1,-1 2,-2 3,-2 1,0 1,2 1,2 -1,1 -2,2 -3,2 0,0 0,-2 -1,-2zm-17 -4c0,0 1,2 1,3l0 1c0,0 -2,0 -2,-1l1 -3zm4 3l0 -2c0,-1 1,-1 2,-1l0 0c0,2 0,1 -1,3l-1 0zm24 -2l0 -1 2 0c0,1 -1,1 -2,1l0 0zm-154 3c-6,0 -6,-4 -7,-4l3 -4c3,5 -1,4 6,5 2,1 1,1 3,2 -1,0 -1,1 -1,1 0,0 0,0 -4,0zm135 -4c-1,0 -1,0 -1,-1 0,-1 1,-1 1,-2l1 3 -1 0zm-125 -1c2,-1 2,-2 3,-2 1,0 1,2 1,2l0 -1 1 1c-2,1 -3,2 -4,2l0 -1 -1 -1zm-24 -2l0 0c0,1 0,2 1,2l0 0 0 1 -1 -3zm34 -4c1,1 1,1 1,1l-2 -1 0 -2 1 2zm-11 1l-1 -2c0,-1 1,-1 3,-1 1,0 1,0 1,0 0,0 0,1 -1,3l-2 0zm6 -7l-1 1 -3 0 4 -1zm128 -1c1,2 1,2 1,3 0,1 0,2 0,3 -1,0 -6,-2 -6,-6 0,-1 0,-2 1,-3 2,1 2,0 4,3zm-121 0l-2 1c0,0 -1,0 -2,-1 1,0 1,-1 1,-1l1 0c2,0 3,0 3,0l-1 0 0 1zm-26 -1l1 -3c0,0 0,2 0,3l1 0c0,1 -1,1 -1,1l-1 -1zm130 0c2,0 5,0 6,0 -1,0 -1,1 -2,1 -1,0 -2,-1 -4,-1zm-102 -1c0,-1 1,-1 1,-1l0 1c1,0 2,1 2,1 0,0 -1,0 -2,0 0,0 0,0 -1,-1zm-3 -2c-2,0 -2,0 -3,-1l2 0 1 1zm117 0l1 -3 -1 3zm-109 -4l-1 0 0 -1c0,-1 0,-2 -1,-2 1,0 1,0 2,0l0 3zm118 -6c3,3 1,1 3,4 0,0 -1,1 -2,1 -1,0 -2,-2 -2,-2 0,-1 1,-3 1,-3zm-9 -1l0 1c1,0 2,-1 2,-1 0,0 0,1 -2,4 0,1 -1,1 -1,1l1 -5zm-125 4c1,0 1,0 1,-1l5 0 0 1c-2,1 -3,1 -3,1 0,0 0,0 -3,-1zm-9 -3c2,0 2,1 2,1 0,1 0,2 -1,2l-1 -1 0 -2zm35 3c-2,-1 -3,-1 -3,-1l0 -2c3,1 2,0 3,3zm-17 -3c2,0 2,0 3,0 0,0 1,0 2,0 -2,1 -3,1 -4,1l-1 -1zm-13 -1l0 -1 2 -2c0,1 0,1 -1,1l-1 2zm146 -2c-1,0 -1,1 -2,1 -1,0 -1,-1 -3,-3l4 0c1,1 0,1 1,2zm-136 -3l-3 -2 3 0 0 2zm-7 -1l0 1 -1 -1 1 -2 0 2zm21 1c-1,-2 -2,-3 -2,-3 0,-1 2,-2 3,-3 1,1 1,2 1,3 0,0 -1,1 -2,3zm-11 -1l0 -4c0,-1 0,-1 3,-2 1,1 2,4 3,5l-6 1zm-13 -6c2,1 2,2 2,2 -1,0 -1,0 -2,1l0 -3zm-2 1c0,3 -1,2 -1,3l-5 -5 5 -1c0,2 0,1 1,3zm154 -3c0,0 0,0 1,0 1,0 1,0 1,0l0 -1 0 3c0,0 -2,-1 -2,-2l0 0zm-145 0c1,0 1,-1 2,-1 0,0 1,1 2,1 -1,1 0,1 -3,1l-1 -1zm130 0c0,0 0,0 1,0l0 0 0 2c0,0 -1,-1 -1,-2l0 0zm-110 0c0,-2 1,-2 1,-2 1,0 1,1 1,2l0 0c0,1 0,1 0,1 -1,0 -2,-1 -2,-1zm-9 1c-2,-1 -2,-1 -2,-1l0 -1c2,-2 3,-2 3,-2 2,0 2,2 2,3l0 2c0,0 -1,0 -3,-1zm16 0c1,-4 0,-4 1,-4l3 0c-2,4 -1,3 -4,4zm-61 -4c3,-1 2,-1 5,-4 0,1 0,2 0,3 0,1 0,2 -2,2 -1,0 -1,0 -3,-1zm175 -1c-1,0 -2,0 -3,0 0,0 0,-1 -2,-3l5 3zm-13 -6l6 3 0 2c0,0 0,1 -3,1l-3 -6zm-188 6l3 -2c0,1 0,2 -2,2l-1 0zm172 0c0,-2 2,-3 4,-3l-4 3zm-104 -1c-2,-2 -2,-3 -2,-3 0,-1 0,-1 1,-1l2 0 -1 4zm-15 2c0,0 -1,0 -1,-1 0,0 1,-1 3,-3l0 1 1 -1c0,0 -1,0 -2,2l0 1 -1 1zm-6 -5l0 1 0 2c0,0 0,-1 -1,-2l1 -1zm29 1c5,-5 2,-3 4,-7l2 4c1,1 1,1 1,2l-7 1zm-18 0c0,-2 2,-3 2,-4l3 3c0,1 -2,1 -3,1 -1,0 -1,0 -2,0zm-49 -5l3 2c0,1 -1,2 -3,3 0,-2 0,0 0,-3l0 -2zm170 9c1,-2 1,-3 1,-4 0,0 0,-1 -1,-3 2,0 3,0 3,1l0 3c0,2 1,2 1,2l1 0 1 1 -6 0zm27 -4c0,0 0,0 -1,0 -1,0 -1,0 -2,-2 -1,-2 -1,-3 -1,-4l1 0c0,0 1,0 1,0l2 6zm-212 -6c1,0 2,0 2,1l-1 2 -3 -1 1 -2c0,0 0,0 1,0zm-5 1c-1,2 -1,3 -3,3 -2,1 -3,1 -3,1l-1 -2 7 -2zm-12 -1c1,1 1,1 1,2 0,1 -1,1 -3,2l2 -4zm234 -3l1 -1 0 6 -1 -1 -1 1c0,-2 0,-2 0,-3 0,-1 0,-2 0,-3l1 1zm-157 3l-1 0 -1 0 1 -2c0,0 0,0 1,-1l0 3zm-51 0c2,0 1,0 3,2l-3 -2zm194 -1c-3,1 -4,1 -4,1l-1 -3c2,1 2,0 5,2zm-18 0l0 1c0,0 0,0 -1,-1l1 0zm-71 -1l1 -1c1,0 1,0 1,1 0,1 -1,2 -1,2l-1 -2zm-39 7c1,-4 2,-8 3,-10 3,1 4,2 4,3 0,2 -4,6 -7,7zm-4 -7c0,-1 1,-1 1,-1 0,0 0,0 0,1l1 1c0,1 -1,1 -1,1 0,0 -1,0 -1,-2zm-36 -2c3,1 2,1 3,4 -3,-1 -3,0 -3,-1l0 -3zm84 1l1 0 0 1c0,0 -1,0 -1,-1l0 0zm-53 -1l3 0c0,1 0,1 -1,3 -1,-2 -2,-1 -2,-2l0 -1zm-54 1c0,-1 0,-2 0,-2l1 2c1,0 1,0 1,1 -1,0 -2,-1 -2,-1zm-10 0l3 0 1 0 0 2 0 2 -1 -1 -1 1 -2 -4zm41 0c1,0 1,0 1,-1l0 0c0,-1 0,-1 2,-2l0 3c0,0 -1,0 -3,0zm169 -3c1,-5 1,-3 3,-5 -1,5 0,4 -4,7 1,-2 1,-2 1,-2 0,0 -1,1 -1,2 0,0 1,-1 1,-2zm-47 0l1 0 0 0 0 0c0,1 0,1 0,1 0,0 -1,0 -1,-1zm-112 2l-2 0 -1 -1 0 -1 0 0c3,0 2,0 3,1l0 1zm-23 -2c-1,3 0,3 -4,3l4 -3zm-50 2l0 -1 1 0c0,1 0,1 0,1l-1 0zm123 4c-4,-2 -2,-2 -4,-6l2 0c2,0 3,0 5,5l-3 1zm-32 -5c0,-1 1,-1 1,-1l-1 1zm106 -4c1,0 3,0 3,1l-1 2c-1,0 -1,1 -2,-3zm-54 1c0,-1 1,-1 1,-1l0 2c0,0 -1,0 -1,-1zm-83 -2l2 4 -1 -1 -1 -3zm-2 0l-1 2c0,1 -1,1 -2,1 0,0 0,-1 -1,-3l4 0zm-21 4c1,-3 2,-3 4,-3 -2,3 -1,2 -4,3zm180 -3c1,0 1,0 1,1 0,1 -1,2 -1,2 0,0 -1,-1 -1,-2l1 -1c0,0 0,0 0,0zm-189 -1c1,-2 1,-2 1,-2l0 1c0,1 0,2 0,2l-1 -1zm66 0c1,-2 1,-2 1,-2l2 0c-2,2 -1,2 -3,2zm-15 4l0 -4c0,-1 1,-2 2,-3 0,1 1,0 1,2l0 2 -1 3 0 0 -2 0zm25 -7c1,-6 0,-4 4,-8 0,1 0,1 0,1 0,1 0,1 -3,4l3 0 2 3 2 -5c3,0 3,0 5,-1l3 6c-4,8 -7,4 -10,7 1,2 4,3 4,3 0,0 0,0 0,0 0,1 -1,1 -3,1 -1,0 -2,0 -3,-1 0,-2 -1,-2 -1,-3 1,0 1,0 1,-2l0 -1c0,-1 1,-1 1,-2l-5 -2zm4 1l1 0c0,0 -1,0 -1,-1l0 1zm-8 1c0,-1 0,-1 -1,-3 2,1 2,0 2,3l-1 0zm-52 0c0,-1 0,-1 0,-1l0 -1 1 1 2 0c0,0 -1,1 -2,1l-1 0zm78 -6c1,0 2,-1 2,-1l2 1 -1 2c0,1 0,3 0,3 -5,0 -3,0 -7,0l4 -5zm82 4c0,0 0,1 -1,1 -2,0 -4,-4 -5,-6l3 0 1 2 2 1 0 2zm-69 -5c2,1 2,2 3,2 -1,1 0,0 -3,1l0 -3zm-48 4c-2,-2 -2,-1 -2,-3l2 3zm60 -7l1 2c0,0 -1,2 -1,3 -1,-2 -2,-2 -2,-3l2 -2zm71 2c1,0 1,1 1,1l0 1c0,0 0,-1 -1,-1l0 -1zm-6 -3l1 -1 2 2c-1,3 -2,6 -5,6 -1,0 -2,0 -3,-1l5 -6zm-72 4c1,-1 1,-1 1,-1l2 1 0 1 -2 0c0,0 0,0 0,-1l-1 0zm-20 -1l-1 1 1 -1zm109 0l0 -2 2 0 -2 2zm-4 -6c0,0 1,1 2,2l0 1c0,0 0,0 -1,0 0,0 0,0 -2,-1l1 -2zm-114 2l3 0 0 1 -3 -1zm109 -5c2,1 2,3 2,3 0,2 -2,2 -2,2 -1,-2 -1,-3 -1,-4 0,-1 1,-1 1,-1zm-18 7c0,-3 2,-3 5,-3 -2,2 -1,2 -5,3zm-68 -4c0,1 -1,1 -1,2l-1 1 0 0 -2 5c-1,-1 -1,-2 -1,-2 0,-2 -1,-2 -2,-2l-1 0 -1 -1 -1 0 3 -5c2,1 3,2 3,2 0,0 -1,0 -1,0l5 0zm-25 -3l0 1c0,1 0,2 -2,4l-2 -2c0,0 1,0 2,-2l2 -1zm9 1c0,0 1,0 3,1 0,1 1,1 1,1 0,1 0,1 -1,1 0,0 -2,-1 -4,-1l1 -2zm114 0l0 1 0 -1 1 -1 -1 1zm-21 -5c2,2 2,3 2,4 0,0 -1,0 -3,1 -1,-1 -1,-2 -1,-3 0,-1 1,-1 2,-2zm-76 0c1,2 2,3 2,3l-2 0c-1,-2 -2,-2 -2,-2 0,-1 1,-1 1,-1l1 0zm86 2l1 -3c0,0 1,1 1,1l0 3c0,0 0,-1 -1,-1l-1 0zm-7 -4l2 2 0 1c0,0 -2,0 -2,-1l0 -2zm-100 0c0,0 1,1 1,3 1,0 1,1 1,1 -1,0 -3,-1 -3,-2l1 -2zm26 1c0,-1 1,-1 1,-1l0 1c0,1 0,2 0,2l-1 -2zm-15 -1c0,0 0,1 1,1 1,0 2,0 2,1l-2 1c0,0 -1,0 -1,-1l0 -2zm-18 0c0,0 0,1 0,1l2 0c0,1 -1,2 -2,2 0,0 0,-1 0,-2l0 -1zm119 1c0,-2 1,-2 1,-2l1 0c1,1 1,1 1,2 0,0 0,1 -1,3 -1,-1 -1,-1 -2,-3zm-82 -3c0,0 1,1 1,2 0,0 0,0 -1,0 0,0 0,0 0,0l0 -2zm-23 1c1,0 1,1 1,1l0 0 -1 0 0 -1zm111 -1c-2,-2 -1,-1 -2,-4 1,1 2,1 2,1l0 3zm-9 -1l-1 -1c0,0 1,0 1,0l1 0 2 0c0,0 -1,1 -2,1l-1 0zm-74 -1c-2,0 -4,0 -6,-1l-2 -2c0,0 0,0 0,-1 2,0 3,-1 3,-1l2 2c2,1 3,1 3,1l0 2zm-30 0c0,-3 1,-3 2,-3 1,0 1,1 4,1 2,0 4,-1 8,-4 1,1 1,2 1,3 0,2 -3,1 -6,3 -2,0 -4,0 -6,0 -1,0 -3,0 -3,0zm27 -8c0,0 0,-1 -1,-4 4,2 2,0 3,4l-2 0zm-7 -2l1 1 1 0c0,0 0,0 -1,0 0,0 -1,0 -2,0l1 -1zm-10 1c2,-1 2,-3 3,-3 1,0 2,0 3,2l0 1 -6 0zm94 -2l0 -1c0,-1 1,-1 3,-1 0,0 2,0 3,1l-6 1zm-94 -3c0,-1 1,-2 2,-2 1,0 2,1 3,1 -2,1 -2,2 -2,2 0,0 -1,-1 -3,-1zm17 -9c2,1 3,3 3,3 0,2 -2,1 -2,2 0,-1 -1,-1 -1,-2l0 -3zm-9 2c1,-2 1,-1 3,-4l-3 4zm-12 -4l0 1 0 1 -1 -1 1 -1zm107 0c0,1 -1,2 -1,2l-1 -1c1,-1 1,-2 2,-2l0 1zm0 -3l0 0 0 0zm-91 1c-5,-1 -3,0 -5,-3l4 0c1,0 1,0 1,1l0 2zm14 -4l-1 1 0 -1c0,-1 1,-1 1,-1l0 1zm-13 -2c0,1 0,2 1,2l1 0c0,0 -1,1 -1,1l-1 -3zm-4 -2c0,0 1,1 1,2l0 2c0,0 -1,-1 -1,-2l0 -2zm9 -2c1,2 3,3 3,5 0,1 -2,3 -5,5l2 -10zm85 0c-2,1 -1,1 -3,2 -2,1 -1,1 -3,1 0,-3 1,-3 2,-3 1,0 2,0 4,0zm13 -10l1 2c1,0 2,0 2,1l-1 1c0,0 -1,-1 -2,-3l0 -1zm-19 0l0 2c0,0 1,1 1,1l-1 1c0,0 0,-1 -1,-3l1 -1zm-64 2l4 -4 0 6 -4 -2zm54 -2l0 0 1 2 -1 -2 0 0zm-57 1l-2 5 -3 -3 -1 0 6 -2zm71 -8c0,7 0,7 3,11l-1 0c-3,0 -4,-2 -5,-5l0 -2c0,-4 3,-4 3,-4zm-62 1l-4 0 2 -3c3,0 4,0 7,2 -1,0 -1,0 -4,1l-1 0zm-7 -6c2,-3 5,-4 9,-4l3 0c0,3 0,2 -2,6l-5 -4c0,2 -3,3 -6,3l-1 0c0,0 1,-1 2,-1zm77 0l2 0c0,0 -1,1 -1,1l-1 -1zm-60 -4l0 -1 1 0c0,1 0,1 0,1l-1 0zm-9 -3c0,-1 0,-1 0,-2l3 -1 -3 3zm-6 -2c0,-1 0,-1 0,-1 1,0 1,0 1,1 0,1 0,1 -1,1 0,0 0,0 0,-1zm82 -7l-1 1c0,1 0,1 1,1l1 0c0,1 -1,1 -1,1l0 -3zm-6 0l-1 0c0,0 -1,0 -3,0 0,-3 1,-2 3,-3l1 3zm-74 0l3 0c0,0 -1,1 -2,1 0,0 0,-1 -1,-1l0 0zm8 -2c0,-1 0,-1 0,-1 1,0 1,0 1,1 0,1 -1,2 -1,2l0 -2zm18 1c0,-1 0,-1 0,-1l0 1zm-7 -2c2,4 3,3 7,5l-3 4c-1,-4 -1,-4 -3,-4l-3 0 2 -5zm59 -3c0,-1 1,-1 1,-1 0,0 1,0 1,1l0 2c-1,0 -2,-1 -2,-2zm-61 -1c0,1 -1,1 -1,1l0 -2c0,0 0,1 1,1zm65 -2l0 0 3 0 1 1 -4 -1zm-9 3c-1,0 -2,1 -3,1 -2,0 -3,-2 -3,-5l1 0 1 1c0,0 1,0 1,0l3 3zm-43 -5c0,-1 -1,-2 -1,-3 0,-1 2,-1 4,-1l-3 4zm54 -4l0 2c-3,-1 -3,0 -3,-5l3 3zm-47 0c2,0 2,-1 2,-1 0,-1 0,-1 1,-2l0 3 -3 0zm56 0l-1 0 0 0 1 -3 0 3zm-76 -2c0,-2 1,-2 1,-2 1,0 1,1 1,2l0 1c-1,0 -2,0 -2,-1zm56 2l0 -3c0,-1 0,-1 3,-1 0,3 0,4 -1,4l-2 0zm-50 -1l1 -2c2,-2 1,-1 2,-2 1,1 2,3 2,4 0,1 -2,1 -5,2l0 -2zm42 -3c2,1 2,0 2,3 0,-2 -2,-2 -3,-2 -1,0 -1,1 -2,1 0,0 0,-1 -1,-5 2,1 2,0 4,3zm19 -5c2,2 2,3 2,4 0,1 0,1 -1,1l-1 0 -2 -3c0,0 1,0 2,-2zm-64 3l0 -1 2 0c0,1 -1,1 -2,1zm56 -2l0 1c0,0 0,0 -2,0l-1 0 -1 0 -1 -3 5 2zm3 0c0,-2 -1,-2 -1,-3 0,-2 2,-2 4,-4l-3 7zm-34 0l1 -1c0,-1 -1,-1 -1,-1l3 0 0 2 -3 0zm-7 -2c1,0 1,0 1,0 0,0 0,2 0,3 0,-2 -1,-2 -1,-2l0 -1zm-6 0c1,-1 1,-1 3,-2 0,3 0,4 -2,4l-4 0c2,-2 0,-1 3,-2zm36 1c-1,0 -2,1 -3,1 0,0 0,-1 -1,-4l4 1 0 2zm-86 113c0,-4 15,-26 18,-31l30 -45c3,-6 6,-10 9,-15 2,-3 3,-3 5,-6 4,-5 11,-18 18,-19 -3,9 -7,18 -11,27 -7,19 -22,85 -25,91l-44 -2zm77 -141c2,-2 2,-2 4,-3 3,2 2,1 5,5l-2 1 3 2 1 1c-2,1 -2,1 -3,1l-1 1c-1,0 -1,1 -1,1l0 3c-2,-2 -1,-2 -4,-2 -2,1 -1,1 -2,2 0,1 -1,1 -1,1l0 2c3,1 4,1 6,1 0,0 1,0 3,-1 1,3 2,4 3,6l4 4c-7,-1 -3,-6 -16,-7 -2,-9 -3,-3 -7,-8l-1 -2 -1 -2 4 0c2,0 1,0 3,4 1,1 1,1 1,1l-1 0 2 0c2,-6 3,-4 3,-6 0,0 1,0 1,0 -1,-5 0,-1 -3,-5zm-26 22c3,-1 0,-1 3,-1 3,0 3,0 3,0 -1,0 -2,0 -2,0l1 1 -1 1 0 1 -1 0c-2,0 -3,0 -3,0 0,0 2,0 2,-1l-2 -1zm14 -1l0 -3c1,1 1,1 2,3l-2 0zm36 -2c0,0 0,0 0,-1l0 1zm-45 1c-1,0 -1,-1 -1,-3 5,1 2,0 4,3l-3 0zm32 -6c2,-1 2,-2 3,-2 1,0 2,2 5,6 -5,-2 -6,0 -8,-4zm-21 1c-1,0 -1,0 -2,0 0,-1 0,-2 -1,-3 2,1 3,1 3,2l0 1zm-7 -4c0,0 0,0 0,1l0 1 -1 -2 1 0zm44 4c-2,-2 -3,-1 -3,-2l0 -2c0,-3 2,-4 3,-4l0 0c1,1 2,2 2,4 0,0 -1,1 -2,4zm8 -10l1 -1c1,0 1,0 3,1 -2,1 -2,1 -3,1 0,0 0,-1 -1,-1zm-10 -3l0 2c0,0 -1,-1 -3,-2l3 0zm7 -3c0,-1 1,-1 1,-1l0 1c1,0 2,0 2,0 0,1 -1,1 -2,1 0,0 0,0 -1,-1zm-8 0c-1,-1 -2,-1 -2,-2 0,-1 1,-1 1,-1l1 0c0,1 0,1 0,2l0 1c1,1 1,2 2,2 0,-1 -1,-2 -2,-2l0 0zm20 -6l2 2 0 0c0,1 0,1 -1,1 0,0 -1,0 -1,-1l0 -2zm-14 4c0,-1 -1,-1 -1,-2 0,-1 1,-1 2,-2l-1 4zm-38 -6c4,4 4,2 5,8 -3,-2 -2,-1 -5,-6l-4 4c0,-4 1,-4 4,-6zm47 4l0 -1 0 -1 1 1 2 0 -2 1 -1 0zm-4 -6c1,2 1,3 1,4 0,0 0,0 -1,2 -2,-2 -2,-2 -2,-3 0,-2 2,-2 2,-3zm-18 3c0,-1 0,-1 1,-1 -2,6 -2,3 -4,8l4 5c2,1 2,3 2,4 0,1 -1,2 -2,2 -2,0 -6,-8 -6,-10 -1,-1 -1,-4 -1,-6l6 -2zm10 -1c-2,3 0,2 -3,4 -1,0 -1,1 -2,1 0,0 0,-1 -1,-2l6 -3zm-29 -2c2,-2 2,-3 5,-3l-2 4 3 3c-2,1 -2,2 -5,2 2,-3 3,-3 3,-3 0,0 -1,-1 -4,-3zm10 0c1,1 1,2 1,2 0,0 -1,0 -2,1l1 -3zm38 -4c-1,3 0,2 -4,3 1,0 2,-2 2,-2l2 -1 0 0zm-26 3c-4,0 -6,1 -8,3l0 -2c0,-1 1,-1 1,-2l-2 -2 5 -2 4 3 4 -3c3,3 4,3 4,6l-1 0 -7 -1zm-21 -6c0,1 0,1 1,1l1 0 1 0c0,1 -1,2 -2,2 -1,0 -1,-1 -1,-2l0 -1zm33 0c1,2 1,3 1,4 0,1 0,1 -2,3l-1 -6 -1 -1c0,0 0,-1 -1,-3l4 3zm-26 -1l-2 1 1 -2 0 -1 1 2zm29 -3c0,-1 1,-1 1,-1 0,0 0,0 0,1l1 1c0,1 -1,1 -1,1 0,0 -1,0 -1,-2zm-19 -1l1 0c2,0 3,0 3,0l-2 0 0 1c-1,2 -2,2 -2,2 -1,0 0,-1 -2,-2l2 -1zm27 1l-4 -1 0 -1c0,0 0,-1 0,-2 4,2 4,1 4,2l0 2zm-16 -3c0,2 0,2 -1,2l1 -1 0 -1zm-6 2l-1 0 1 -1 0 1 2 0c0,0 -1,0 -2,0l0 0zm11 -9l1 5c0,1 -1,1 -2,3 -1,-5 -2,-5 -3,-5l-1 0c0,0 -2,0 -6,-3l11 0zm-13 3l1 1c0,0 -1,2 -3,3l1 -4 1 0zm-17 2l1 1c1,1 1,1 1,2 -1,0 -2,-1 -2,-2l0 -1zm34 1c2,-6 0,-6 5,-6 0,3 -1,3 -5,6zm13 -10l0 2c1,0 2,1 2,1 0,1 -1,1 -1,1 -1,0 -1,0 -1,-2l0 -2zm-14 2l1 1 1 0 0 1 -1 1c0,0 -1,-1 -3,-1l2 -2zm10 -3l0 1 -2 -1 2 0zm-5 0l-1 1 0 0c0,-2 0,-3 1,-3l0 2zm-8 -3l1 1 0 2c0,0 0,-1 -1,-2l0 -1zm-7 3c0,0 0,-1 -1,-1l-1 0 0 -4c1,1 1,1 2,1l0 4zm15 -5c1,0 1,0 1,0 0,0 -1,2 -2,2l0 -3c0,0 0,1 1,1zm13 -6c-1,0 -1,0 -2,0l2 0 0 0zm-20 -6l1 0 1 0 1 0c0,0 0,1 -1,1l-2 -1zm-16 200c1,-21 10,-52 14,-72 5,-22 12,-50 18,-69 3,-11 7,-24 11,-33 6,-13 11,-24 11,-32 0,-5 -3,-9 -10,-10 -2,-1 -5,-1 -7,-1 -15,0 -24,10 -36,19 -10,7 -2,5 -11,11 -5,4 -39,42 -40,46 -3,6 -2,0 -8,9l-2 2c-4,5 -3,7 -8,13 -8,8 -10,11 -12,14l-4 4c-1,2 -2,5 -3,7 -1,1 -2,1 -3,3 -1,0 -3,2 -4,2l-8 14c-3,5 -1,2 -4,5 -3,3 -2,3 -4,8 -3,5 -7,7 -9,11l-22 32c-3,5 -6,7 -8,13l-7 0c-13,0 -23,1 -35,1 -10,1 -59,3 -64,6 -3,4 -6,15 -6,25l0 4c3,11 5,15 12,15 8,0 20,-4 41,-8 6,-1 11,-1 16,-3 8,-1 9,1 14,-4 1,1 2,2 2,3 0,2 -1,3 -2,6 -3,3 -5,7 -7,11 -12,14 -3,7 -14,21 -5,7 -11,20 -13,23 -7,11 -4,5 -12,21 -6,14 -11,26 -11,37 0,13 9,24 31,28 3,0 5,0 7,0 16,0 9,-18 32,-64 8,-15 43,-83 49,-90 5,-5 54,-8 63,-9l0 2c0,11 -6,29 -6,40l-5 43c-1,4 -1,8 -1,12 0,22 14,35 35,35 5,0 11,-1 16,-3 2,-2 2,-5 2,-7 0,-8 -3,-15 -3,-23l0 -7c0,-27 7,-67 10,-92l12 0c12,0 25,0 26,-9 -5,-8 -23,-8 -33,-10z"></path>
   </g>
   <g>
    <path fill="#0487B3" fill-rule="nonzero" d="M2583 371c0,0 -1,0 -1,-1l1 1zm35 1l-1 2 0 0c0,0 -1,0 -3,0l4 -2zm-20 -6l2 -2 0 2 -2 1 0 -1zm-26 -6c1,0 1,1 1,1l-1 2 0 -3zm16 1c-2,3 -2,4 -7,4l7 -4zm25 -4l0 4c0,2 0,3 -2,6 0,-1 -1,-1 -1,-1l-1 0c0,-1 1,-2 1,-5l1 -2 2 -2zm-17 1c0,0 1,-1 1,-1 0,0 0,1 0,1l0 1c0,1 0,1 -1,1l0 -2zm39 4c0,-1 0,-2 0,-2 1,0 2,1 2,1 0,1 0,2 -1,2l-1 0c-1,0 -1,1 -1,1 0,0 0,0 1,-2zm-41 -10c0,-2 0,-3 1,-3 1,0 2,3 2,3l0 2 0 -2 -3 0zm41 -10l2 0 0 1 1 1 0 1 10 4c-2,2 1,3 -4,3l-3 0 -4 -1 -1 0c-2,0 -11,7 -11,7 1,-6 0,-3 8,-6 -1,-3 -1,-3 -1,-3l0 0c0,0 0,0 1,-3l0 -4c0,0 0,1 1,1l1 -1zm-16 9l0 1c0,1 1,2 1,2 0,0 -1,0 -4,1 -2,0 -3,0 -3,0 -2,0 -2,0 -2,0l0 -2 8 -2zm2 -9c1,3 2,3 2,4 0,1 -1,2 -1,4l-6 -1 5 -7zm75 15l1 1 0 2c0,0 0,-3 -1,-3zm55 7c1,0 3,0 3,0l2 0c0,0 -1,1 -2,1 -1,0 -2,0 -2,-1l-1 0zm-99 -19c0,-1 1,-1 1,-1l-1 1zm-20 -18l5 3c-2,5 0,1 -4,4l-4 6 0 2c0,1 0,3 -2,5l-2 -3c0,-2 1,-1 1,-2 0,0 -1,-1 -4,-4l-3 -2c3,-1 3,-2 4,-2 1,0 2,1 6,2l3 -9zm112 -125c0,-2 -2,-5 -2,-5 3,4 9,4 15,10 -2,1 -2,1 -2,1 -1,0 -1,0 -4,-3 -2,-1 -2,-1 -2,-1l0 -1c0,0 -1,-1 -4,-2 -6,7 2,2 -10,13 -3,4 -6,7 -9,10l-36 27c-2,0 -4,4 -5,5l-23 17c-1,0 -1,0 -2,0l-14 11c0,1 -1,2 -2,2 -14,12 -32,25 -42,44 -5,9 -3,6 -12,8 -7,1 -24,7 -27,11 0,0 -2,6 -2,13 0,12 3,27 20,27 4,0 8,0 13,-2 22,-6 65,-12 103,-12 27,0 51,3 66,10 13,5 17,15 26,16 2,-1 9,-8 9,-19 0,-7 -2,-14 -11,-21 -18,-14 -81,-22 -117,-22 -5,0 -10,0 -14,0 -6,1 -4,1 -6,2 -2,1 -4,2 -8,3l2 -7c1,-1 2,-1 2,-1 1,0 0,1 1,1l1 0c3,-1 4,-1 4,-1l-1 -1c0,-1 0,-1 3,-2l40 -28c13,-11 33,-23 54,-41 16,-15 41,-38 41,-63 0,-7 -2,-14 -7,-21 -10,-15 -36,-19 -63,-19 -37,0 -75,9 -77,12 -2,3 -2,10 -2,16 0,7 0,13 1,18 1,10 1,22 10,25 7,-5 9,-12 17,-17 13,-8 33,-11 47,-14 4,0 9,0 14,0 5,0 9,0 15,1zm-125 123c0,-2 0,-3 1,-3 2,0 3,2 5,3 -2,1 -2,1 -3,1 0,0 0,-1 -1,-1l-2 0zm33 -1c0,-2 0,-3 1,-3 0,0 1,3 1,3l0 1 0 1c-1,0 -2,-1 -2,-2zm-18 -19c0,-1 1,-2 1,-2 0,0 0,0 0,2 0,1 -1,3 -1,3 -1,0 -1,0 -1,-1 0,-1 0,-2 1,-2zm24 -3l-1 4c0,0 0,0 -2,2l3 -6zm-13 0l2 0c5,0 7,5 7,10 -3,-3 -4,-1 -4,-8l-5 -2zm21 5c-2,-1 -3,-2 -3,-2l-1 -3 4 5zm4 -12l0 0c1,0 3,1 3,1 2,0 2,0 2,1 0,1 -1,1 -3,1 0,0 -1,0 -1,-1l-1 -2zm15 -3c0,0 2,0 2,1 0,1 -1,2 -3,4 -2,-2 -2,-4 -2,-5 0,0 0,0 1,0l2 0zm-25 0l0 -3c1,0 1,2 2,2l-2 1zm31 2c1,0 3,1 3,1 0,0 0,0 0,0 0,1 0,1 0,1 -1,0 -2,0 -3,-1l0 -1zm10 -2l0 -1 0 1zm-7 -9c-4,0 -5,0 -8,1l0 -3c0,-1 -1,-1 -1,-1l2 -2c1,1 1,2 1,2 0,0 0,0 1,0 1,0 1,0 1,-1l2 -1c2,-1 2,-1 4,-1l2 0c-3,1 -4,2 -4,4l0 2zm-17 4c1,-2 2,-4 2,-4 0,-1 -1,-2 -1,-3 0,0 1,-1 2,-3l0 2c1,4 2,6 2,7 0,1 0,1 -3,1l-2 0zm28 -14l1 -2c1,0 1,2 1,2l0 1c0,1 -1,2 -1,2 -1,0 -1,0 -1,-2l0 -1zm9 0l0 -2 2 2c0,0 0,1 0,2 0,1 0,2 0,2 -1,0 -2,-1 -2,-4zm-23 -1c-3,-2 -3,-2 -3,-2 0,0 0,0 0,-2l0 -1c3,1 3,1 3,1 0,1 0,2 0,4zm22 -8c4,2 3,2 4,3 -3,0 -4,1 -6,1l-4 0 -1 -1 0 -2c0,-2 1,-2 1,-3l3 0 3 2zm-10 1l1 -1 -3 2 2 -1zm-4 -4c0,-5 2,-3 5,-4l-5 4zm16 -1l1 1c1,0 2,0 2,1 0,1 -2,2 -2,2 -1,0 -1,-1 -1,-2l0 -2zm14 -6l7 -3 -1 0 -6 5c-3,-2 -4,-3 -6,-3 -1,0 -2,1 -4,1 0,0 -1,0 -2,-1 2,-3 2,-4 2,-4 0,0 2,1 7,2l3 3zm-13 -12l-1 -1c0,1 1,1 1,1l0 0zm32 0l0 1 -1 -1 1 0zm-8 -6c0,0 1,0 1,-1l-1 1zm16 -6c0,2 -1,3 -2,4 -2,-2 -3,-3 -3,-3 0,-1 2,-1 5,-2l0 1zm-18 -1c0,-2 0,-2 1,-2 1,0 2,1 2,2l-1 2c-1,0 -2,-2 -2,-2zm16 -4c-3,-2 -3,-2 -3,-3 0,-1 0,-2 1,-5l4 6 0 -6c0,0 1,1 2,1l2 0 -2 5 -1 0c0,0 -1,0 -3,2zm-12 -8l0 -1 2 1 0 1c-1,0 -2,0 -2,-1zm21 -1l2 1c1,0 1,0 1,1 0,1 -1,2 -2,2 -1,0 -1,-1 -1,-2l0 -2zm-4 -5c0,1 0,2 1,2 1,0 1,0 1,1 0,0 -1,1 -1,1 -1,0 -1,-1 -1,-1l0 -3zm-99 -23c1,1 1,1 1,1 -1,0 -2,0 -2,0l0 -1 1 0zm46 5c-1,0 -1,0 -1,1 0,0 0,1 2,1l0 0c0,0 0,1 -1,1l0 -3zm-24 -1c0,0 -1,0 -1,0 3,-6 3,-6 3,-6l5 0 -4 3 -3 3zm97 15c-3,0 -4,1 -5,1 0,0 0,-1 -1,-4l6 3zm-124 -24c0,-1 0,-1 1,-1l1 2c0,1 0,2 -1,2 -1,0 -1,-1 -1,-3zm101 18c0,0 1,0 1,0 1,0 2,0 2,1 0,1 -1,2 -2,2 0,0 -1,-1 -1,-3l0 0zm-87 -9c-3,-1 -4,-6 -5,-9 8,3 2,3 9,3 -4,0 -5,1 -5,3 0,0 0,1 1,3zm96 5c-1,0 -1,0 -1,1 0,0 0,0 2,0 0,1 0,2 -1,2l0 -3zm-91 -14c-2,-1 -2,-2 -2,-4l2 4zm89 13c-2,1 -3,2 -3,2 0,0 -2,-1 -4,-3 0,-2 1,-3 2,-3 2,0 4,2 5,4zm-62 -9c0,-1 0,-1 0,-1l0 1zm46 6l0 -6 1 -1c0,0 -1,0 -1,0 4,-3 -2,-3 7,-3l-5 6c2,0 3,1 4,4l-6 0zm-23 -9c-1,4 -1,5 -1,5 0,0 0,0 -2,0 0,0 -2,0 -2,0 3,-5 -1,-3 5,-5zm-15 2c0,-4 1,-4 1,-4 1,0 2,3 2,4l1 2 -2 -2 -2 0zm28 3c1,0 1,0 1,0l3 0c1,0 3,0 3,0 0,0 -1,0 -1,1l1 1c-3,1 -4,1 -4,1 -1,0 -1,-1 -3,-3zm-49 -16c5,3 2,0 4,4 2,2 2,2 2,2l0 3 -6 -9zm15 5c0,1 0,2 1,2 1,0 1,0 1,1 0,0 -1,1 -1,1 -1,0 -1,0 -1,-2l0 -2zm-33 0c-4,-2 -4,-1 -4,-3l0 -3c5,3 3,1 4,6zm101 11c0,-1 0,-1 1,-1 0,0 1,0 1,1 0,1 -1,1 -1,1 -1,0 -1,0 -1,-1l0 0zm-61 -10l0 -3c0,-1 1,0 4,-2l-4 5zm47 3l1 0c0,0 -1,1 -2,1l-1 0 2 -1zm-12 -6c0,0 0,0 2,1l1 0c0,-1 0,-1 0,-1 -1,0 -1,0 -1,2l-1 2c0,0 -1,-2 -1,-3l0 -1zm-3 -5l-1 1 1 -1z"></path>
   </g>
   <g>
    <path fill="#0487B3" fill-rule="nonzero" d="M2833 339c0,0 -1,0 -1,-1l3 2 0 2c0,0 -1,0 -2,-3zm-24 2c1,1 1,1 1,2 -1,0 -3,-1 -4,-2l0 -3c1,0 3,3 3,3zm-11 -10c-1,-1 -1,-1 -1,-1l1 0c0,0 3,0 3,0 1,0 2,0 3,0 0,0 -3,2 -4,2 -1,0 -2,0 -2,-1zm97 -10l-2 -1 0 -4 2 5zm-29 -8l0 1 0 -1zm-49 -2l0 -1 2 0c1,0 2,0 2,1 0,0 -1,0 -1,0 -1,0 -2,0 -3,0zm-10 0l0 -1c0,-1 0,-1 0,-1 1,0 3,2 3,2l-3 0zm96 -15c0,-1 0,-1 1,-1 0,0 2,2 2,3 1,1 1,2 1,3 -2,0 -4,-3 -4,-3l0 -2zm-14 2c-1,0 -1,-1 -1,-1l4 0c0,1 -1,1 -3,1l0 0zm6 -3l0 0 1 0 -1 0zm8 -2c1,-4 2,-4 5,-4 -2,4 1,2 -5,4zm-14 -7l1 0 1 0c1,0 1,0 1,0 0,-1 0,-2 0,-2l0 6c-1,0 -3,-2 -3,-4l0 0zm-12 5c-4,-2 -2,-1 -5,-2 1,-3 1,-4 1,-4 1,0 1,1 3,2 1,1 2,1 2,1 0,0 -1,0 -1,1l0 2zm-70 -3c0,0 2,1 2,2l0 2c-1,0 -2,-1 -2,-2l0 -2zm107 -10l0 -1 0 1zm-13 -4c1,2 3,2 3,3l-3 2 -1 -6c1,0 1,1 1,1zm-13 2c1,1 3,1 4,1 1,0 1,-1 1,-1l0 1c0,0 0,2 1,5l-6 -6zm-78 1l0 1 0 -1zm82 -15c0,0 1,1 1,1 2,0 1,1 2,1 0,0 1,0 2,-1 3,-2 4,-2 4,-4 0,-1 -3,-2 -5,-4l6 3 -4 9c-7,-1 -4,0 -9,-4l3 -1zm-59 5l1 -1c0,0 -2,1 -2,1l1 0zm-20 0c0,0 2,0 2,0l2 0c0,0 -1,1 -3,1 0,0 -1,-1 -1,-1zm7 -9c2,1 3,2 3,2l0 1c-7,-3 -6,0 -9,-6 3,1 3,1 6,3zm-15 3c0,-1 1,-2 2,-2 0,0 1,1 1,2 1,2 1,3 1,3 0,1 0,1 -1,1 -1,0 -2,-2 -3,-4zm109 -6c1,3 1,4 1,4 0,0 0,-1 -1,-1 0,0 -1,1 -3,3 -2,-12 3,-6 -7,-10 0,-2 0,-3 0,-3 1,0 3,3 4,3l3 0c1,0 2,-1 3,-1 0,0 0,1 0,5zm-16 -9c0,2 -1,2 -2,2 0,0 -1,0 -1,0 0,0 1,-2 2,-3l3 -2 0 1c0,0 -1,1 -2,2zm-82 -1c1,2 2,2 2,2 0,0 -1,1 -2,4l-1 -1 -1 0c0,-1 0,-2 2,-5zm92 -3c0,-1 1,-1 4,-1 4,-1 5,-1 5,-1 0,0 -2,1 -2,2l1 0c-3,3 -5,3 -6,3 -2,0 -1,-2 -2,-3l0 0zm-18 -2c0,1 0,3 1,3l1 0c0,0 0,0 0,1 0,1 0,2 -1,2 -1,0 -2,-1 -2,-3l1 -3zm30 2l-1 -1 1 1 0 0zm-3 -6c-2,0 -1,0 -5,-3 0,-1 4,-1 5,-1 5,1 3,1 5,4l-5 0zm-24 -5l1 3c1,0 1,1 1,1 0,1 -1,2 -2,2 0,0 -1,-1 -1,-2l1 -4zm-62 5c-1,0 -1,0 -1,0l1 0zm3 -14c0,-2 0,-3 1,-3l0 3c1,0 1,0 1,1l-1 0c0,0 0,0 -1,-1zm-14 -2l4 0c0,0 1,0 1,1 0,1 -1,3 -2,6l-3 -7zm24 -13c0,-2 1,-3 1,-3 0,0 1,2 1,3l0 1c-1,0 -2,0 -2,-1zm-15 118l0 -2c0,-23 19,-62 25,-83 5,-13 8,-23 8,-32 0,-16 -10,-22 -34,-22 -4,0 -8,0 -14,0 -4,13 -9,25 -13,37 -8,24 -22,71 -22,102 0,10 1,17 4,23 9,12 24,23 40,23 10,0 19,-4 28,-14 14,-18 22,-43 31,-64 1,4 1,8 1,12 0,9 -1,19 -1,29 0,7 0,15 3,21 5,16 19,30 36,30 3,0 7,-1 11,-2l-6 -28c0,-5 0,-9 0,-13 0,-42 17,-95 17,-121 0,-4 -1,-8 -2,-11 -2,-6 -14,-17 -27,-17 -6,0 -14,3 -21,14l-28 50c-5,11 -23,52 -31,62l-5 6z"></path>
   </g>
   <g>
    <path fill="#0487B3" fill-rule="nonzero" d="M2965 317c1,-1 2,-1 3,-1 1,0 2,0 2,1 0,0 -1,0 -2,1 -1,0 -1,1 -1,1 -2,0 -2,-1 -2,-2l0 0zm12 -10c1,0 1,1 1,1l1 0 -2 0 -1 0 1 -1zm-9 -27l1 0 -1 0zm18 -47l0 0 0 0zm23 -15c-1,2 -1,3 -1,3l-6 0c6,-2 3,-1 7,-3zm-14 -11c0,0 2,1 2,2 0,1 0,3 -1,3 0,0 -1,-1 -1,-4l0 -1zm15 1l-2 2 0 0c0,-1 0,-2 0,-2 1,-3 1,-4 2,-4 0,0 0,2 1,4l-1 0zm-1 -9c-1,2 -1,2 -2,2l-1 0c0,-1 1,-2 2,-3 1,-1 3,-3 3,-3l0 1c0,0 0,2 -2,3zm-11 -16c0,-1 0,-1 0,-1 2,0 4,1 4,1l1 -1 0 1c0,0 -1,3 -3,3l-2 -3zm-5 -1c0,0 -1,0 -2,-1l2 1zm19 -9c-2,1 -4,2 -5,2 -3,0 -5,-2 -9,-6l14 4zm0 -16l2 0 -2 0zm-13 0c0,-1 -1,-1 -1,-1 1,0 2,1 2,1l-1 0zm19 -18l2 0 -2 0zm-16 -8l0 0c0,0 0,1 1,1l-1 -1zm29 1c-5,-2 -7,-3 -7,-3 0,0 1,0 1,-2l0 -1c2,0 3,0 4,0 1,0 1,0 2,6zm8 -9l2 2c0,1 1,1 1,1l-1 0c0,0 -2,0 -2,-1l0 -2zm-26 3l4 0c0,0 0,0 0,0 0,1 0,2 -1,2 -1,0 -2,-1 -2,-2l-1 0zm4 -10c0,-1 -1,-2 -1,-3l1 0c0,0 3,1 3,1 0,0 1,-1 1,-1 1,0 1,0 1,1 0,0 -2,3 -4,3l-1 -1zm19 -6l0 -2 0 2zm-22 -1c0,1 -2,2 -3,2 0,0 0,-1 0,-1l0 -1c0,-2 0,-4 1,-4 1,0 1,2 2,4zm10 -8c0,-1 0,-1 1,-1 1,0 2,1 3,2 0,1 1,2 1,2 0,1 -1,1 -1,1 -1,0 -4,-2 -4,-3l0 -1zm-5 1c-1,0 -2,2 -2,2l0 -2c0,-2 1,-3 2,-3 0,0 1,1 1,2l-1 1zm11 -20c0,0 0,1 0,2 0,0 0,-1 0,-1l0 -1zm3 -12c0,-3 0,-3 0,-3l-1 0c0,1 1,2 4,2l0 1 0 0c0,1 0,2 0,2 -1,0 -3,-1 -3,-2zm-13 370c-2,-16 -9,-4 -20,-31 -5,-12 -8,-27 -8,-44 0,-38 12,-82 19,-108l42 -140c3,-11 16,-33 16,-49 0,-11 -6,-19 -25,-19 -3,0 -6,0 -10,1 -20,2 -23,13 -29,33l-20 68 -2 6c-9,45 -30,116 -30,178 0,33 6,64 24,86 9,9 21,19 40,19l3 0z"></path>
   </g>
  </g>
 </g>
</svg>